/* XPM */
static char *_2a696311c0a4676c6489ee2a52f239ekQ0Cdx0alpM90TEa[] = {
/* columns rows colors chars-per-pixel */
"50 50 88 1 ",
"  c #5E7FDD",
". c #7E66D1",
"X c #756DD5",
"o c #7B69D3",
"O c #6E73D7",
"+ c #6A76D8",
"@ c #637BDB",
"# c #6878D9",
"$ c #7171D6",
"% c #875FCE",
"& c #8B5CCC",
"* c #9A50C7",
"= c #9455C9",
"- c #9852C8",
"; c #9058CB",
": c #8462CF",
"> c #8064D0",
", c #0F9EED",
"< c #1296E9",
"1 c #119AEB",
"2 c #3F97E8",
"3 c #369FEB",
"4 c #3B9BE9",
"5 c #0EA1EE",
"6 c #0CA7F0",
"7 c #0BABF2",
"8 c #07B6F7",
"9 c #08B3F5",
"0 c #06B8F7",
"q c #05BCFA",
"w c #0EBEFA",
"e c #17B7F7",
"r c #1BB4F5",
"t c #16B8F7",
"y c #12BBF9",
"u c #2DA5EF",
"i c #2BA8EF",
"p c #32A2ED",
"a c #25ADF2",
"s c #29A9F0",
"d c #2AA8F0",
"f c #2BA8F0",
"g c #28AAF0",
"h c #21B0F3",
"j c #20B1F3",
"k c #20B1F4",
"l c #5784DF",
"z c #5785DF",
"x c #5B82DE",
"c c #5A83DE",
"v c #5D80DD",
"b c #5E80DD",
"n c #5C81DE",
"m c #5885DF",
"M c #4F8BE2",
"N c #4E8CE3",
"B c #4B8EE4",
"V c #4A8FE4",
"C c #5685E0",
"Z c #5785E0",
"A c #5686E0",
"S c #5388E1",
"D c #518AE2",
"F c #508BE2",
"G c #5488E1",
"H c #4791E5",
"J c #4792E5",
"K c #4493E6",
"L c #4692E6",
"P c #4792E6",
"I c #4394E6",
"U c #4395E7",
"Y c #4097E7",
"T c #4494E6",
"R c #4A90E4",
"E c #4097E8",
"W c #04C0FB",
"Q c #04C1FB",
"! c #04C3FC",
"~ c #07C3FC",
"^ c #04C4FD",
"/ c #05C5FD",
"( c #07C4FD",
") c #0AC1FB",
"_ c #0BC1FB",
"` c #0CC0FB",
"' c #0AC1FC",
"] c #09C2FC",
/* pixels */
"oXE1kaaa9i::=UQissy9xXO+/DX+#!roopu$$OOpr+:+yz+OO+",
">>xa@AA@r+::o4Y@n@Ra:>.X4>..%PO%:mD:o:.4+.:.2X..::",
"Oox3@AAAr+X$>4Dnn@4pXXoOso...pDXoDD:..o3@XoX4X:..o",
"qr!qa44py7q/a9)r44rp9)3r1's3a!80s/Qrupp)qqraWyri3i",
"NPffB>o>RuDR4aaa:X:$rBRpuwezx@suNPuQ2mz+auRRUr/zzz",
"..>@P>>>U@oo>>$4oo:nB.++.AB.o.4O.o.4+:.X4O:o.+4::.",
"aUAPkBMB)URpRnR)RNNup@xBpasnDErEEND!azxzyz4UNUWUzz",
"@g@oR5'r74XnpX'5ty8@X.XXD!En@s+o+iD+Baxn4mXzi@@u2x",
".%:.@h @su.:..p4@Awx>...Xu@ @4o.::o.xU@@pU.%:ooUz ",
"oXXoAy nDaoX@@ap@@pPo.o.@iANBrXooXo.z4x@Uiooo.opzx",
"AA 3504usrMpriqq/r'0Dxssrtrss0aZzzmp!yUattzBzipru2",
"%:% a+++P%&.@:&a!3pqX&XA..4@@x4&&::Nu+$xD&:o.ux:oo",
"oo>@unABE>Xo:X.4R@nkMo>.o$pnnDrOoo>D4xm2M.ooX2Xo.:",
"X.$usNPs/@X+OO /rDAupX+$+@kNZDwZX>+apBBry+@++yR$O+",
"+-@,/rr'<r@zni)i4Da9u@PtNA4NR!rGX*D5)rrQ<i4ry59qgg",
"%.+rnAZnr@%::U@%::nP%%o4>>>% 4.&%.xgxxxzyX:@mnNaOX",
"Xon4@ nxrX.o.4@.o.@U.oX4>o.:AG.>oomU   zao.+@X@pXo",
"y4a)p42skryPDq)BDByq'ppwUBMDr)wryUyypE2hayuxNa/)BB",
"aa'!!x++:yypa/)9pEE4qsuyq/44UpQaaa!Q)@@+o'B:::iS+X",
"oXXXE+..o3.$@X+uoo.mR.o.DN>..AN.ooX$4X.:$EX.oopDzx",
"B.XXuB++xr+@nBAa@+@4px+O4y#X#pE@N++Oaz#+BaOOoMyUUB",
"N=O')rah8'+ rrBPzzryMBzzqrzDMq)D2z2)Uzm2qa+ O75rtt",
"::#rnnA t@&%P+:>:ouX:::X3::::U+%::xB%::X4:&:oaUxDx",
"Xo 4 @  rX..U+>..X4o...Op.o.:4@>ooDN:o.Xpoooopzzz ",
"w3k'u4EaarrE'pEBB4/'tuNp5iBN4/q/4Dw84NRhq!!r4!i4E4",
"si))(n++>yepa'93EEB!rupr/QQEENr'pu'w8s2UN!rsr)y++X",
".XoX4+>>o4.Xo$p...X3o.++oMR.o.4+X@$X3+..+4:ooo2X.:",
"U@@$uR@+nrAx@n'DO+Aa@+nGM4p+@nrx@@MDaD+@RaDD@#az@+",
"ErF41Qy9pn@PyMEssDNan++@pqiABrB++@zr^RApsnnfa#Gq8w",
":::nyDnrp&>&..:BA@@s+>>&ou#@$R.>::%zE++@A::&::%a3m",
"XX@mh@nDa.ooo..EB@@uB>..$pmZDs.o>o.D4lApP>oooo.gM@",
"AR4994E40pn$&A4`rpu!`n@+!!usr1rZ+&D8yusq74@AzPh7r4",
"XXn/#$$@/R:%;P)pu3aq :X@7rppp/r.:;@/u33g8B.XXa4O+O",
"oo R:o.:4o:.o4U@ @Pg:.>$acAG@sD:.oD3   xrX..o4X...",
"$ona:oo+rz@@o4Nnxxu3@@++s@DnArA@@XM2 xxUa@+XXs@.oo",
"rsq1Qruy)77qy7Qw24iP59Q!7yU44u79qy8qw34gB00ar,8wii",
"nDUUw4@++hznN43p&o:+s zPU4&o:@p@ z24ao.%.ilzP2pw@@",
"X+$.U@:oXpXo..X3oo:AB.o.Xpo.:ANooo..4Oo:+4.O+o+4oo",
"xA4h'umUpr4h3z4!344iussPDru34yaBrpMP/i433axlBarwDN",
":..Ny@@n4.:OB.w9ar8O::B@:$9!s/t>oBo36tg9D::..Xr2#O",
"o..@p xzU.o.oXpU@myn.X:>oXan@Jy$..XBp@@a4.oo..pAxn",
"oXoPizN3rXo$@ztinx34XoXoX@QNcca#X@xptAAPiX.Xo@gMRz",
"lpywgUUy14xBryQaURyqDnn#~96)rQ92Day/tEPs9UzBMW8244",
"&@U%:::BP:&%U#:::.s@:;>+!UzRmr2&%AN%%>>4D:%::3+%.:",
"o@U:o.:U+...U@:o:X4....Oinzz#av:.mD>o>.4X..oX4Xoo.",
" 4u@@@@raiNxrD@@@F`s33PByRYR2yapnu4@@@ tapU@@/3@@@",
"ayW7)piu)9tr/q7auip9Q``/0tnm@B8)ryq7tusuQ0yay788iu",
"X$$p oo.UzoXX@ioXoXpOoX$@P:.:vN.X$$u#ooo4@o+@+muXo",
"@.ouUo.Xp@OXo+r+.X@uX@Xo+uXXoPJ$+oXhG>o$u+o+@@@p$X",
"rWary)4Uyp4yWp)yyU4yRrQrBrq~y9wUkqsty)4Ey4DmNr89UU"
};
