/* XPM */
static char *_6c1912d125b496189a8ac4b08ae50796RY5rQOxl6fhmYm7[] = {
/* columns rows colors chars-per-pixel */
"50 50 213 2 ",
"   c None",
".  c black",
"X  c #010101",
"o  c #020202",
"O  c gray1",
"+  c #010606",
"@  c #060606",
"#  c gray4",
"$  c #0C0C0C",
"%  c gray6",
"&  c #100000",
"*  c #100101",
"=  c #100303",
"-  c #100D0D",
";  c #100F0F",
":  c #101010",
">  c #1E1E1E",
",  c gray18",
"<  c #323232",
"1  c gray20",
"2  c #470000",
"3  c #490000",
"4  c #5B0000",
"5  c #630000",
"6  c #640000",
"7  c #670304",
"8  c #7D0000",
"9  c #7F0000",
"0  c #631D1D",
"q  c #4E4E4E",
"w  c #5B5B5B",
"e  c #7F4E4E",
"r  c gray38",
"t  c #636161",
"y  c #646464",
"u  c #676767",
"i  c #6F6F6F",
"p  c #717171",
"a  c #727272",
"s  c #7C7C7C",
"d  c gray49",
"f  c #7E7E7E",
"g  c #800000",
"h  c #A40001",
"j  c #A42525",
"k  c #CD0000",
"l  c #CD0001",
"z  c #CD0D0E",
"x  c #F90000",
"c  c #F90001",
"v  c #FC0001",
"b  c #FE0000",
"n  c red",
"m  c #FE0001",
"M  c #FF0001",
"N  c #FF0102",
"B  c #FF0203",
"V  c #FF0304",
"C  c #FF0607",
"Z  c #FF090A",
"A  c #FF0A0B",
"S  c #FE0C0D",
"D  c #FE0E0F",
"F  c #FF0F10",
"G  c #FF1011",
"H  c #FF1314",
"J  c #FF191A",
"K  c #FE1B1C",
"L  c #FF1B1C",
"P  c #FF1C1D",
"I  c #FF1D1D",
"U  c #FF1E1F",
"Y  c #FE1F20",
"T  c #FF1F20",
"R  c #CD2829",
"E  c #FF2525",
"W  c #FF2E2F",
"Q  c #FF2F30",
"!  c #FF3131",
"~  c #FF3132",
"^  c #FE3232",
"/  c #FF3233",
"(  c #FF3333",
")  c #FF3334",
"_  c #FF3435",
"`  c #FF3637",
"'  c #FF3737",
"]  c #FE3D3D",
"[  c #FE4040",
"{  c #FF4041",
"}  c #FE4545",
"|  c #FF4647",
" . c #FE4849",
".. c #FF494A",
"X. c #FF4A4A",
"o. c #FF4A4B",
"O. c #FF4B4B",
"+. c #FF5051",
"@. c #FF5758",
"#. c #FF5B5C",
"$. c #FF5D5E",
"%. c #FF5F5F",
"&. c #FF5F60",
"*. c #D26F6F",
"=. c #FF6161",
"-. c #FE6162",
";. c #FF6162",
":. c #FF6262",
">. c #FF6263",
",. c #FF6364",
"<. c #FF6464",
"1. c #FF6465",
"2. c #FF6565",
"3. c #FE6566",
"4. c #FF6767",
"5. c #FF7070",
"6. c #FF7677",
"7. c #FF7778",
"8. c #FC7D7D",
"9. c #FF7C7D",
"0. c #FE7D7D",
"q. c #FF7D7E",
"w. c #FF7E7E",
"e. c #FF7E7F",
"r. c #FE7F80",
"t. c #FF7F80",
"y. c #7F8282",
"u. c #808080",
"i. c #808282",
"p. c gray51",
"a. c #8B8B8B",
"s. c #929292",
"d. c #9B9B9B",
"f. c gray61",
"g. c #9C9D9D",
"h. c #9D9D9D",
"j. c #9C9E9E",
"k. c gray62",
"l. c gray67",
"z. c #B4B4B4",
"x. c gray71",
"c. c #B6B6B6",
"v. c #B7B7B7",
"b. c #B4B9B9",
"n. c gray72",
"m. c #B9B9B9",
"M. c gray75",
"N. c #FE8080",
"B. c #FF8080",
"V. c #FE8081",
"C. c #FE8181",
"Z. c #FF8182",
"A. c #FF8282",
"S. c #FF9292",
"D. c #FF9899",
"F. c #FF9A9A",
"G. c #FF9B9C",
"H. c #FE9C9C",
"J. c #FF9C9C",
"K. c #FF9C9D",
"L. c #FF9E9E",
"P. c #CDA5A5",
"I. c #FFA0A0",
"U. c #FEB1B1",
"Y. c #FFB1B2",
"T. c #FFB2B2",
"R. c #FFB4B5",
"E. c #FFB5B5",
"W. c #FFB8B9",
"Q. c #C0C0C0",
"!. c #CDC0C0",
"~. c #CDCDCD",
"^. c #CDCECE",
"/. c #CDCFCF",
"(. c gray81",
"). c #D2D2D2",
"_. c #D7D7D7",
"`. c #D8D8D8",
"'. c #DADADA",
"]. c #FFC4C4",
"[. c #FFCDCD",
"{. c #FFCDCE",
"}. c #FFCFD0",
"|. c #FFD2D2",
" X c #FFDBDB",
".X c #FFDFDF",
"XX c #EEEEEE",
"oX c #EFEFEF",
"OX c #FFE0E0",
"+X c #FFE1E1",
"@X c #FFE3E3",
"#X c #FFE6E6",
"$X c #FFE9E9",
"%X c #FFECEC",
"&X c #FFEEEE",
"*X c #FFEFEF",
"=X c #F3F3F3",
"-X c gray96",
";X c #FFF0F0",
":X c #FFF1F1",
">X c #FFF2F2",
",X c #FFF3F3",
"<X c #FFF5F5",
"1X c #FFF7F7",
"2X c #FFF9F9",
"3X c snow",
"4X c #FFFBFB",
"5X c #FFFCFC",
"6X c #FFFDFD",
"7X c #FEFEFE",
"8X c #FFFEFE",
"9X c #FEFFFF",
"0X c white",
/* pixels */
"                                . . . . . . . . . . . . . . . . . .                                 ",
"                                . . . . . . . . . . . . . . . . . .                                 ",
"                                & & & & & & & & & & & = - : : : : :                                 ",
"                    . . . . . 4 l l l l k k k k k k k z P.(.~.(.~.~.w . . . . .                     ",
"                  . . . . . . 6 v v v v v v v v v v v G }.0X0X0X0X0Xy . . . . . .                   ",
"                  @ @ @ @ @ + 6 v v v v v v v v v v v G {.0X0X0X0X0Xy . @ @ @ @ #                   ",
"            . . . d x.x.x.x.b.*.v v v v v v v v v v v G {.0X0X0X0X0X).x.x.x.x.n.d . . .             ",
"            . . . h.0X0X0X0X0XL.v v v v v v v v v v v F {.0X0X0X0X0X0X0X0X0X0X0Xh.. . .             ",
"            . . . d.0X0X0X0X0XL.v v v v v v v v v v v G {.0X0X0X0X0X0X0X0X0X0X0Xd.. . .             ",
"        . @ d h.d._.0X0XU.=.2.] v v v v v v v v v v v C +.2.2.|.0X0X0X0X0X0X0X0X'.d.h.d @ .         ",
"      . . @ x.0X0X0X0X0X0.v v v v v v v v v v v v v v v v v v E.0X0X0X0X0X0X0X0X0X0X0Xn.@ . .       ",
"      . . @ x.0X7X7X7X0XC.v v v v v v v v v v v v v v v v v C W.0X0X0X0X0X0X0X0X0X0X0Xx.@ . .       ",
"      . . @ x.0X7XU.0.C.[ v v ^ B.0.C.r.r.r.r.r.C.0.C.7.J v V #.C.C.{.0X0X0X0X0X0X0X0Xx.@ . .       ",
"      . . @ x.0X7X-.v v v v v 2.0X0X0X0X0X0X0X0X0X0X0X>X( v v v v v F.0X0X0X0X0X0X0X0Xx.@ . .       ",
"      . . + b.0X7X3.v v v v v =.0X0X0X0X0X0X0X0X0X0X0X&XW v v v v v L.0X0X0X0X0X0X0X0Xb.@ . .       ",
"      4 6 7 *.L.H.] v v ^ 2.=.I.0X0X0X0X0X0X0X0X0X0X0X<XC.=.=.I v v $.L.G.G.G.G.G.G.L.*.7 6 4       ",
". . & k v v v v v v v v C.0X0X0X0X0X0X0X0X0X0X0X0X0X0X0X0X0X2X..v v v v v v v v v v v v v v k & . . ",
". . & k v v v v v v v v 0.0X0X0X0X0X0X0X0X0X0X0X0X0X0X0X0X0X2X..v v v v v v v v v v v v v v k & . . ",
". . & k v v v v v v v v C.0X0X0X0X0X0X0X0X0X0X0X0X0X0X0X0X0X2X..v v v v v E ..........` V v l & . . ",
". . & k v v v v v v v v r.0X0X0X0X0X0X0X0X0X0X0X0X0X0X0X0X0X2X..v v v v v 0.0X<X2X1X0XU.C v l & . . ",
". . & k v v v v v v v v r.0X0X0X0X0X0X0X0X0X0X0X0X0X0X0X0X0X2X..v v v v v 0.0X0X0X0X0XE.V v l & . . ",
". . = R ^ ^ S v v v v v r.0X0X0X0X0X0X0X0X0X0X0X0X0X0X0X0X0X2X..v v I ` W F.0X0X0X0X0X].` ^ R = . . ",
". . : !.>X$X} v v v v v 0.0X0X0X0X0X0X0X0X0X0X0X0X0X0X0X0X0X2X..v v S.>X&X<X0X0X0X0X0X2X&X>X!.- . . ",
". . : (.0X2X..v v v v v r.0X0X0X0X0X0X0X0X0X0X0X0X0X0X0X0X0X4X..v v L.0X0X0X0X0X0X0X0X0X0X0X~.: . . ",
". . : ~.0X2X&.K T S v v 5.OX.X&X0X0X0X0X0X0X0X0X0X0X0X2X#XOX X{ v v F.0X0X0X0X0X0X0X0X0X0X0X~.: . . ",
". . : ~.0X0X$XOXOX@.v v S E I 6.0X0X0X0X0X0X0X0X0X0X0X>XO.I T Z v v L.0X0X0X0X0X0X0X0X0X0X0X~.: . . ",
". . : ~.0X0X0X0X0X2.v v v v v =.0X0X0X0X0X0X0X0X0X0X0X>X^ v v v v v G.0X0X0X0X0X0X0X0X0X0X0X~.: . . ",
". . : ~.0X0X0X0X0X<.v v v v v $.>X&X&X&X>X&X*X*X&X>X&XOXW v v v v v S.>X&X<X0X0X0X0X0X2X&X>X!.: . . ",
". . : ~.0X0X0X0X0X=.v v v v v G ^ ^ ^ ^ ^ ^ ^ ^ ^ ^ ^ Q Z v v v v v I ` Q D.0X0X0X0X0X].` ^ R & . . ",
". . : ~.0X0X0X0X0X<.v v v v v v v v v v v v v v v v v v v v v v v v v v v 0.0X0X0X0X0XE.C v l & . . ",
". . : ~.0X0X2X2X4X=.v v v v v c c v v v v c c v v v v c c v v v v c c v v 0.0X2X2X2X0XU.C v l & . . ",
". . - ~.0X0X0.| ..I v v h 3 3 3 2 3 3 3 3 3 2 3 3 3 3 3 2 3 3 3 3 2 2 3 2 j O.........) v v l & . . ",
". . : ~.0X2X} v v v v v g . . . . . . . . . . . . . . . . . . . . . . . . 9 v v v v v v v v k & . . ",
". . : ~.0X2X..v v v v v g . . . . . . . . . . . . . . . . . . . . . . . . 9 v v v v v v v v k & . . ",
"      w y t 0 5 6 6 6 6 e h.f.d.d.h.a . . > s.d.d.d.h.s.> . . i h.d.h.h.j.e 5 6 6 6 6 6 6 6 4       ",
"      . . . . . . . . . y.0X0X0X0X0Xn.@ . < -X0X0X0X0X=X< . # n.0X0X0X0X0Xp.. . . . . . . . .       ",
"      . . . . . . . . . d 0X0X0X0X0Xx.@ . < XX0X0X0X0XXX< . @ x.0X0X0X0X0Xd . . . . . . . . .       ",
"        . . . . . q p.d M.0X0X0X0X0Xa.@ . < =X0X0X0X0X=X< . # x.0X0X0X0X0XQ.d p.q . . . . .         ",
"            . . . h.0X0X0X0X0X0X0X    . . < XX0X0X0X0XXX< . @ x.0X0X0X0X0X0X0X0Xk.. . .             ",
"            . . . h.0X0X0X0X0X0X0X0Xl.. . , XX0X0X0X0XXX, . . x.0X0X0X0X0X0X0X0Xh.. . .             ",
"            . . . d.0X0X0X0X0X0X0X0X).y t p.-X0X0X0X0X-Xp.t y ).0X0X0X0X0X0X0X0Xh.. . .             ",
"            . . . d.0X0X0X0X0X0X0X0X0X0X0X0X0X0X0X0X0X0X0X0X0X0X0X0X0X0X0X0X0X0Xh.. . .             ",
"            . . . h.0X0X0X0X0X0X0X0X0X0X0X0X0X0X0X0X0X0X0X0X0X0X0X0X0X0X0X0X0X0Xh.. . .             ",
"            . . . d n.x.'.0X0X0X0X0X0X0X0X0X0X0X0X0X0X0X0X0X0X0X0X0X0X0X0X'.x.n.d . . .             ",
"                  @ @ . p.0X0X0X0X0X0X0X0X0X0X0X0X0X0X0X0X0X0X0X0X0X0X0X0Xp.. @ @                   ",
"                  . . . p.0X0X0X  0X0X0X0X0X0X0X0X0X0X0X0X0X0X0X0X0X0X0X0Xp.. . .                   ",
"                    . . a ~.~.x.  Q.~.~.~.~.~.~.~.~.~.~.~.~.~.~.~.~.~.~.(.a . .                     ",
"                        : % % # . $ : : : : : : : : : : : : : : : : : : : -                         ",
"                          . . . . . . . . . . . . . . . . . . . . . . . .                           ",
"                        . . . . . . . . . . . . . . . . . . . . . . . . . .                         "
};
