/* XPM */
static char *eae3030833354e95e3e40accd67159d3xkD8Q5mqsYOwidsR[] = {
/* columns rows colors chars-per-pixel */
"50 50 78 1 ",
"  c None",
". c #220060",
"X c #240069",
"o c #260072",
"O c #2A007D",
"+ c #F0615E",
"@ c #ED546D",
"# c #EE5869",
"$ c #EC4F73",
"% c #EB4B7A",
"& c #F7945C",
"* c #F8A060",
"= c #FDC76B",
"- c #FECC6B",
"; c #2C0086",
": c #2F008B",
"> c #30008F",
", c #2F0090",
"< c #310094",
"1 c #33009D",
"2 c #3500A3",
"3 c #3700A9",
"4 c #3800AC",
"5 c #3A00B3",
"6 c #3D00BB",
"7 c #3F00C3",
"8 c #4000C4",
"9 c #4200CB",
"0 c #4400D3",
"q c #4600DB",
"w c #4800DE",
"e c #4900E3",
"r c #4C00EB",
"t c #4E00F4",
"y c #4F00F9",
"u c #5000F6",
"i c #5300FC",
"p c #5C00FB",
"a c #7F00EF",
"s c #6600F7",
"d c #6C00F6",
"f c #6300F9",
"g c #6800F8",
"h c #7300F4",
"j c #7C00F1",
"k c #E83B8C",
"l c #E52C9E",
"z c #E73197",
"x c #E83791",
"c c #E31EAE",
"v c #E117B6",
"b c #E219B3",
"n c #E113BC",
"m c #E425A6",
"M c #E528A2",
"N c #E422AA",
"B c #EA4481",
"V c #AF00DF",
"C c #B500DE",
"Z c #BC00DC",
"A c #8500EE",
"S c #8C00EB",
"D c #9C00E6",
"F c #9400E9",
"G c #9800E8",
"H c #8000F0",
"J c #A400E4",
"K c #AC00E1",
"L c #B100E0",
"P c #DF0CC4",
"I c #DD03CF",
"U c #DF08C8",
"Y c #CE00D6",
"T c #C300DA",
"R c #C900D8",
"E c #D300D5",
"W c #DC01D1",
"Q c #E00EC2",
/* pixels */
"                                                  ",
"                                                  ",
"                                                  ",
"                                                  ",
"                                                  ",
"                                                  ",
"                                                  ",
"                                                  ",
"                                                  ",
"                                                  ",
"                                                  ",
"                                                  ",
"                              O                   ",
"                    6d9pp      <<      o          ",
"                   f  <3670D    21     2          ",
"                       <256r     7     62         ",
"                     <5995<<6DH  4e    99         ",
"                   8fSKTTFe23Hf   ue    i         ",
"                 3pFJDDJYxMH6<;2  qh    d         ",
"                9hSAhshajjZBF72jj  F    Aw        ",
"           y5  rSAhgfdpgFDdJbp8YZ  Gjy  Di        ",
"          FS51wJFggw997ehSHhZKw9e7 GcT  Lp        ",
"          Uj37AJdfi63uhFTLFSDKeO45 GvK  Rf        ",
"         Kn0:qCSige16iJQ+#nKFFt1644KL   W         ",
"         UZ 7SZfip66pDZ$-=@EZSr2859PBt jQ         ",
"         bh69ZZypi8iFCR%*&NKSt1294rWE  ZW         ",
"         UreARLrir5iFFJRNmYDi5,7q5GE0  vK         ",
"        fY8iTvKwiu1yCDAAFDjsr3508rJF  HM          ",
"        fC wiJKquy4rCZhjjfq870wrqGS6  ET          ",
"        iJ 9ADK9rsi7dmJhDSdghiidGSw  jWi          ",
"        eS  LDJ98GC9eD%ZjjHhfgAFGe  rRH           ",
"         h  09Ai3ig660SzkYKDJLJje2 0KF            ",
"         i8  7tf59e7gi8iDRTCDjii63rFA6            ",
"         w9  64i04qqAS960reqw76repAh7             ",
"         38   <6e450uuthsqwr0spihjsw              ",
"          4     69<17ipddpihdhgsfi8               ",
"          ;      45:;50rpffiiiit9                 ",
"                  <1;  <366641                    ",
"                   O>O                            ",
"                      X.                          ",
"                                                  ",
"                                                  ",
"                                                  ",
"                                                  ",
"                                                  ",
"                                                  ",
"                                                  ",
"                                                  ",
"                                                  ",
"                                                  "
};
