/* XPM */
static char *_f5d4d1388b64f79848340a6c4fb983euBRkH0TPBJcDJHQV[] = {
/* columns rows colors chars-per-pixel */
"50 50 194 2 ",
"   c None",
".  c #D72400",
"X  c #D72600",
"o  c #D92500",
"O  c #D82700",
"+  c #D92700",
"@  c #DA2600",
"#  c #D72800",
"$  c #D72900",
"%  c #D62A00",
"&  c #D72A00",
"*  c #D32C00",
"=  c #D32D00",
"-  c #D42F01",
";  c #D82800",
":  c #D82900",
">  c #D82901",
",  c #D82A01",
"<  c #D92A01",
"1  c #D92B01",
"2  c #DA2D03",
"3  c #DB2E04",
"4  c #CE3000",
"5  c #CF3000",
"6  c #CE3100",
"7  c #CA3400",
"8  c #C83600",
"9  c #C93600",
"0  c #C23B00",
"q  c #C63800",
"w  c #C43A00",
"e  c #C03C00",
"r  c #C13C00",
"t  c #C13D00",
"y  c #C23C00",
"u  c #C03E00",
"i  c #D63304",
"p  c #D13704",
"a  c #DB3104",
"s  c #DB3205",
"d  c #DC3607",
"f  c #DD3909",
"g  c #DF3E0B",
"h  c #E03D0B",
"j  c #9E5B00",
"k  c #9F5B00",
"l  c #BA4300",
"z  c #B84500",
"x  c #B14B00",
"c  c #B44800",
"v  c #B04C00",
"b  c #A75400",
"n  c #A65500",
"m  c #A55600",
"M  c #A95400",
"N  c #A95F05",
"B  c #846F00",
"V  c #856F00",
"C  c #866F00",
"Z  c #8D6B00",
"A  c #8F6A00",
"S  c #896F00",
"D  c #8A6E00",
"F  c #8A6F00",
"G  c #8C6C00",
"H  c #8D6C00",
"J  c #976200",
"K  c #966300",
"L  c #916700",
"P  c #926700",
"I  c #986100",
"U  c #996100",
"Y  c #986200",
"T  c #9E6504",
"R  c #916800",
"E  c #986A04",
"W  c #857000",
"Q  c #877000",
"!  c #867100",
"~  c #877100",
"^  c #887000",
"/  c #897000",
"(  c #8A7101",
")  c #8B7101",
"_  c #8E7304",
"`  c #8F7304",
"'  c #937405",
"]  c #947406",
"[  c #957406",
"{  c #967507",
"}  c #957607",
"|  c #987508",
" . c #9F780B",
".. c #B7640B",
"X. c #A47A0D",
"o. c #A87B0F",
"O. c #A87B10",
"+. c #A97B10",
"@. c #A97D10",
"#. c #AA7C10",
"$. c #AB7C11",
"%. c #B57F16",
"&. c #CB4808",
"*. c #D45410",
"=. c #D35811",
"-. c #E1440E",
";. c #E24710",
":. c #E44E13",
">. c #E55014",
",. c #E55114",
"<. c #E55215",
"1. c #E65315",
"2. c #E65416",
"3. c #E75416",
"4. c #EA5F1C",
"5. c #D16D18",
"6. c #EA601C",
"7. c #EB601C",
"8. c #EA611C",
"9. c #EC661F",
"0. c #EE6C22",
"q. c #EE6D23",
"w. c #EF6E23",
"e. c #E87423",
"r. c #EF7425",
"t. c #F17627",
"y. c #F07727",
"u. c #F27828",
"i. c #F27928",
"p. c #F37829",
"a. c #F27929",
"s. c #F37D2A",
"d. c #B58016",
"f. c #B68016",
"g. c #BA8118",
"h. c #BE831A",
"j. c #C1841C",
"k. c #C2841C",
"l. c #C3841C",
"z. c #C7861F",
"x. c #C9861F",
"c. c #CA8720",
"v. c #CE8822",
"b. c #CF8822",
"n. c #CF8922",
"m. c #CF8A23",
"M. c #D08923",
"N. c #D38A24",
"B. c #D48A25",
"V. c #D88B26",
"C. c #DB8D28",
"Z. c #DC8D28",
"A. c #DC8D29",
"S. c #DF8E2A",
"D. c #E08E2B",
"F. c #E78E2D",
"G. c #E88D2D",
"H. c #F5822D",
"J. c #F4832D",
"K. c #F3842D",
"L. c #E5902D",
"P. c #EA922F",
"I. c #F88B31",
"U. c #F88C32",
"Y. c #EE9331",
"T. c #EE9532",
"R. c #F29533",
"E. c #F39534",
"W. c #F59635",
"Q. c #F69635",
"!. c #F79635",
"~. c #FA9135",
"^. c #FA9335",
"/. c #F89736",
"(. c #F99737",
"). c #FA9737",
"_. c #FB9837",
"`. c #FB9838",
"'. c #FA9938",
"]. c #FC9838",
"[. c #FD9838",
"{. c #FC9938",
"}. c #FD9839",
"|. c #FC9939",
" X c #FD9939",
".X c #FE9939",
"XX c #FF9939",
"oX c #FD9A39",
"OX c #FE9A39",
"+X c #FF993A",
"@X c #FD9B3A",
"#X c #FF9A3A",
"$X c #FF9B3A",
"%X c #FD9C3A",
/* pixels */
"                                : O : O O : O : O : O : O : O : : O                                 ",
"                                O : O : : O : O : O : O : O : O O :                                 ",
"                                : O : O O : O : O : O : O : O : : O                                 ",
"                          : : O O : O : : O : : : O : O : O : O O : : : : O : O : : O :             ",
"                        O : : : : O : : : : % : : : : : O : : : % O O : O : : O O : : O             ",
"                        % % % % % % % % % % % % : : : : : : : : % % : : : : O : : O O :             ",
"                        k k k k k k k k k k k k N e.t.t.u.u.u...k k 5.p.a.0.                        ",
"                          Q Q Q Q Q Q Q Q Q Q Q } R.@X@X@X@X'.@.C C N.@X@X                          ",
"                          ^ ^ ^ ^ Q ^ ^ C S S S } Y.].].].]./.+.C C b.@X].                          ",
"                    ^ ^ ^ ^ Q X.b.N.g.) Q { c.b.B./.].].].]./.+.C S b.@X].].].].@X].@X              ",
"                  ^ ^ ^ Q ^ C f.@X@XA.) C  .Q.@X@X].].].}.).).+.C C b.}.].].].].].].}.].            ",
"                  ^ ^ ^ Q Q C f.].}.A.^ C  .Q.@X}.}.].].}.}.).+.C C N.}.@X].].].].]./.@X            ",
"                  ^ ^ ^ ^ ^ C f.].@XZ.F Q ' h.k.x.E.].]./.].].N.j.j.j.j.j.D.].].].].].].].].        ",
"                  ^ ^ ^ ^ ^ C f.].}.Z.) ^ S C C [ R.].].}.}.].}.@X}.%.C C j.}.].].].].].].].@X      ",
"                  ^ ^ ^ ^ ^ C f.}.@XZ.S C C C C [ P.].].].].].}.@X].f.C C l.@X}.].@X}.}.}.].@X      ",
"                  ^ ^ ^ ^ ^ Q X.b.N.x.%.%.%.%.%.j.E.].].].@X/.Z.b.N.X.C S $.b.b.b.b.b.V./.}.        ",
"                  ^ ^ ^ ^ ^ ^ ^ S C +./.].].].].].].].].].]./.+.C C S C S S C ^ ^ ^ ^ ^             ",
"                  ^ ^ ^ ^ ^ ^ Q C C +./.].].].].].].].].].]./.o.C S C C C C C C Q ^ ^ ^             ",
"                    ^ ^ ^ ^ Q | +.+.j./.].].].].].].].].].].).j.+.+.o.o.+.+.+.@. .^ ^ ^             ",
"                                /.)./.}.].].].].].].].].].}.}.)././.]././.).).)./.                  ",
"                                @X}.@X}.}.@X@X@X@X@X}.@X}.'.@X}.@X@X].].].].}./.@X                  ",
"                              N.L.F.L.L.F.G.H.H.K.F.F.L.F.F.L.F.L.L.E.].].].].@X                    ",
"                          ^ ^ ) ' ` ` ` ) T i 3 p E ` ` ` ` ) ' ` `                                 ",
"                          ^ ^ ^ C ^ ^ ^ ^ J = O 4 L Q ^ ^ Q Q Q ^ ^                                 ",
"                        ^ ^ ^ ^ ^ ^ ^ ^ Q Y % O 4 L Q ^ ^ ^ ^ Z L L                                 ",
"                  ^ ^ ^ ^ ^ ^ ^ ^ ^ ^ ^ Q I = O 4 L Q S ^ ^ ^ l 4 i n Q ^ ^ ^ ^ ^ ^ ^ ^             ",
"                  ^ ^ ^ ^ ^ ^ ^ ^ ^ ^ ^ ~ Y = O 4 R Q S ^ S S y O O n Q ^ ^ ^ ^ ^ ^ ^ ^             ",
"                  ^ ^ ^ ^ ^ ^ ^ ^ ^ ^ ^ ~ Y = O 4 J F Z Z F R 0 O % M Q ^ ^ ^ ^ ^ ^ ^ ^             ",
"            ^ ^ ^ ^ ^ ^ ^ ^ ^ ^ ^ ^ ^ ^ Q I = : % 4 9 9 9 9 9 % : : b Q ^ ^ ^ ^ ^ ^ ^ ^ ^ ^ ^       ",
"            ^ ^ ^ ^ ^ ^ ^ ^ ^ ^ ^ ^ ^ ^ Q J = : : O O O O O : : : : b Q ^ ^ ^ ^ ^ ^ ^ ^ ^ ^ ^       ",
"            ^ ) ^ ) ) ^ ) ) ^ ^ W W ^ ^ S I i 1 : : O : : : O : 1 : M ^ S ^ ^ ^ ^ ^ ) ) ^ ) ^       ",
"            A.A.A.A.A.C.C.A.C.g.Q W j &.0 &.r.u.w.s O : O : : 8.u.u.*.y y n ^ ^ @.Z.Z.A.Z.A.A.      ",
"            @X@X}.}.@X].}.@X}.b.Q Q k % O h ~.$XU.d X : O : : u.%X@X1.O O x ^ Q f.@X}.@X}.}.@X      ",
"            ].].].].].].].].@Xb.Q Q k % O g ~.@XU.d O : : O 1 u.@X@X1.O : v ^ Q %.}.].].].].@X      ",
"            ].].].].].].].].].P.N.b.5.: O s >.2.:.1 O : O : : ;.2.1.f O O *.b.b.D./.@X].].].].      ",
"            ].].].].].].].].].].@X$Xa.1 O O X X X O : O : O : O X O O O O 4.@X}.}.}.].].].].@X      ",
"            ].].].].].].].].].].@X@Xu.: O : O : : : : O : O : O O O O : X 8.@X@X].].].].].].].      ",
"            ].].].].].].].].].H.4.8.>.: : O : O O : O : O : O : : O : O O ;.8.4.t.].].].].].@X      ",
"            @X@X].].].].].].@X0.O X O : O : O : : O : O : O : O O : O : O O X X 1.].].].].].].      ",
"            _._.].].].]._.@X@X0.O : O O : O : O O : O : O : O : : O : O O O O X 1.].].].].].@X      ",
"              @X].].@X}.s.0.0.1.: O : O : O O : O : O : : O : O O : O : O : O O -.@X@X/.}.@X        ",
"                          : : O O : O : O : : O :       O : O : : O : O : O : : :                   ",
"                          O O O : O O O O : O : O       : O O O O O : : O O O O O                   ",
"                        c y y y y y y y y w : : :       O : : q y y y y y y y 0 l                   ",
"                  ^ ^ ^ S S F F S S F S S S                   S S F F F S S F S S ^ ^ ^             ",
"                  ^ ^ ^ ^ ^ S S ^ ^ S S S ^                   ^ ^ ^ S S ^ ^ S S ^ ^ ^ ^             ",
"                  ^ ^ ^ ^ ^ ^ ^ ^ ^ ^ ^ S ^                   ^ ^ ^ S ^ ^ ^ ^ ^ ^ ^ ^ ^             ",
"            ^ ^ ^ ^ ^ ^ ^ ^ ^ ^ ^ ^ ^ ^ ^ ^                   ^ ^ ^ ^ ^ ^ ^ ^ ^ ^ ^ ^ ^ ^ ^ ^       ",
"            ^ ^ ^ ^ ^ ^ ^ ^ ^ ^ ^ ^ ^ ^ ^ ^                   ^ ^ ^ ^ ^ ^ ^ ^ ^ ^ ^ ^ ^ ^ ^ ^       ",
"            ^ ^ ^ ^ ^ ^ ^ ^ ^ ^ ^ ^ ^ ^ ^ ^                   ^ ^ ^ ^ ^ ^ ^ ^ ^ ^ ^ ^ ^ ^ ^ ^       "
};
