/* XPM */
static char *_fccaba53099403eddd9a4c86f7285f5U56gU654jd7q6HBq[] = {
/* columns rows colors chars-per-pixel */
"50 50 212 2 ",
"   c None",
".  c #D72400",
"X  c #D72600",
"o  c #D92500",
"O  c #D82700",
"+  c #D92700",
"@  c #DA2600",
"#  c #DB2600",
"$  c #D72800",
"%  c #D52A00",
"&  c #D62A00",
"*  c #D72A00",
"=  c #D62B00",
"-  c #D32C00",
";  c #D32D00",
":  c #D42F01",
">  c #D82800",
",  c #D92800",
"<  c #D82900",
"1  c #D82901",
"2  c #D82A01",
"3  c #D92A01",
"4  c #D92B01",
"5  c #DA2D03",
"6  c #DB2E04",
"7  c #CE3000",
"8  c #CF3000",
"9  c #CE3100",
"0  c #CA3400",
"q  c #C83600",
"w  c #C93600",
"e  c #C23B00",
"r  c #C63800",
"t  c #C43A00",
"y  c #C03C00",
"u  c #C13C00",
"i  c #C13D00",
"p  c #C23C00",
"a  c #C03E00",
"s  c #D63304",
"d  c #D13704",
"f  c #DB3104",
"g  c #DB3205",
"h  c #DC3607",
"j  c #DD3909",
"k  c #DF3E0B",
"l  c #E03D0B",
"z  c #9E5B00",
"x  c #9F5B00",
"c  c #9F5C00",
"v  c #BA4300",
"b  c #B84500",
"n  c #B14B00",
"m  c #B44800",
"M  c #B04C00",
"N  c #A75400",
"B  c #A65500",
"V  c #A55600",
"C  c #A95400",
"Z  c #A95F05",
"A  c #846F00",
"S  c #856F00",
"D  c #866F00",
"F  c #876F00",
"G  c #8D6B00",
"H  c #8F6A00",
"J  c #896E00",
"K  c #886F00",
"L  c #896F00",
"P  c #8A6E00",
"I  c #8A6F00",
"U  c #8C6C00",
"Y  c #8D6C00",
"T  c #976200",
"R  c #966300",
"E  c #916700",
"W  c #926700",
"Q  c #986100",
"!  c #996100",
"~  c #986200",
"^  c #9E6504",
"/  c #916800",
"(  c #986A04",
")  c #857000",
"_  c #877000",
"`  c #867100",
"'  c #877100",
"]  c #887000",
"[  c #897000",
"{  c #887100",
"}  c #897100",
"|  c #8A7101",
" . c #8B7101",
".. c #8E7304",
"X. c #8F7304",
"o. c #937405",
"O. c #947406",
"+. c #957406",
"@. c #967507",
"#. c #957607",
"$. c #987509",
"%. c #9F780B",
"&. c #B7640B",
"*. c #A47A0D",
"=. c #A87B0F",
"-. c #A87B10",
";. c #A97B10",
":. c #A97D10",
">. c #AA7C10",
",. c #AB7C11",
"<. c #B57F16",
"1. c #CB4808",
"2. c #D45410",
"3. c #D35811",
"4. c #E1440E",
"5. c #E14711",
"6. c #E24710",
"7. c #E44E13",
"8. c #E55014",
"9. c #E55114",
"0. c #E55215",
"q. c #E65315",
"w. c #E65416",
"e. c #E75416",
"r. c #EA5F1C",
"t. c #D16D18",
"y. c #EA601C",
"u. c #EB601C",
"i. c #EA611C",
"p. c #EC671F",
"a. c #EE6C22",
"s. c #EE6D23",
"d. c #EF6E23",
"f. c #E87423",
"g. c #EF7425",
"h. c #F17627",
"j. c #F07727",
"k. c #F27828",
"l. c #F27928",
"z. c #F37829",
"x. c #F27929",
"c. c #F37C2A",
"v. c #B58016",
"b. c #B68016",
"n. c #BA8118",
"m. c #BE831A",
"M. c #C1841C",
"N. c #C2841C",
"B. c #C3841C",
"V. c #C7861F",
"C. c #C9861F",
"Z. c #CA8720",
"A. c #CE8822",
"S. c #CF8822",
"D. c #CF8922",
"F. c #CF8A23",
"G. c #D08921",
"H. c #D08923",
"J. c #D38A24",
"K. c #D48A25",
"L. c #D88B26",
"P. c #DB8D28",
"I. c #DB8E29",
"U. c #DC8D28",
"Y. c #DC8D29",
"T. c #DF8E2A",
"R. c #E08E2B",
"E. c #E78E2D",
"W. c #E88D2D",
"Q. c #F5822D",
"!. c #F4832D",
"~. c #F3842D",
"^. c #E5902D",
"/. c #EA922F",
"(. c #F88B31",
"). c #F88C32",
"_. c #EE9331",
"`. c #EE9532",
"'. c #F39433",
"]. c #F39534",
"[. c #F59635",
"{. c #F69635",
"}. c #F79635",
"|. c #FA9135",
" X c #FA9335",
".X c #F99737",
"XX c #FA9737",
"oX c #F99835",
"OX c #FA9837",
"+X c #FB9837",
"@X c #FC9937",
"#X c #FB9739",
"$X c #FC9738",
"%X c #FB9838",
"&X c #FA9938",
"*X c #FC9838",
"=X c #FD9838",
"-X c #FC9938",
";X c #FD9938",
":X c #FC9839",
">X c #FD9839",
",X c #FC9939",
"<X c #FD9939",
"1X c #FE9939",
"2X c #FF9939",
"3X c #FD9A39",
"4X c #FE9A39",
"5X c #FF993A",
"6X c #FD9B3A",
"7X c #FF9A3A",
"8X c #FF9B3A",
"9X c #FD9C3A",
/* pixels */
"                                > > > > > > > > > > > > > > > > > >                                 ",
"                                > > > > > > > > > > > > > > > > > >                                 ",
"                                > > > > > > > > > > > > > > > > > >                                 ",
"            > > > > > > > > > > > > > > > > > > > > > > > > > > > > > > >                           ",
"            > > > > > > > > > > > > > > > > > > > > + & > > > > & > > > + &                         ",
"            > > > > > > > > 5 2 & & & & 2 > > 5 > & & & & & & & & & & & & &                         ",
"                        a.k.z.t.x x &.j.z.x.x.x.f.Z c c c c V c c c c V x x                         ",
"                          ;X5XF.` ` :.%X;X8X;X;X`.#.` ` ` ` ` ` ` ` ` ` `                           ",
"                          ;X5XS.D D ,..X@X#X;X$X`.#.D L ] ] ] ] L D L L ]                           ",
"              ;X;X#X#X;X$X;X;XS.] D =..X$X;X$X@X.XK.S.Z.#.L ] n.F.F.*.` ] ] ` L                     ",
"            #X;X;X$X@X$X;X$X;XS.] D *.#X;X#X;X#X$X;X;X}.*.`  .Y.5X5Xb.D ] ] ] ] L                   ",
"            ;X#X#X@X#X;X$X;X5XF.D D ,..X$X@X$X;X$X;X;X.X%.] ] Y.;X%Xb.D ] ] ] ] ]                   ",
"        @X#X%X;X@X$X$X;XR.N.M.M.M.M.K.%X@X$X;X$X}.C.M.m.o.D  .Y.5X;Xb.D ] ] ] ] ]                   ",
"      ;X;X$X$X;X#X;X$X;XN.D D <.;X;X$X;X#X;X#X@X_.+.D D D D ] P.;X;Xb.D ] ] ] ] ]                   ",
"      ;X#X@X$X;X;X;X;X;XN.D D b.;X;X;X$X@X$X;X$X_.o.D D D ` ] Y.;X;Xb.` ] ] ] ] ]                   ",
"        @XOXL.S.G.S.H.H.,.D ] *.H.S.Y.%X#X;X#X;X].m.<.b.<.b.b.C.S.G.*.` ] ] ] ] ]                   ",
"            ] ] ` L L D ] ] ] ] L D ,.{.#X@X$X@X$X;X#X@X$X@X.X,.D D ` ] ] ] ] ] ]                   ",
"            ] ] L ` D A D D D D D D -.#X;X#X;X#X@X#X;X$X;X#X#X*.A D D ] ] ] ] ] ]                   ",
"            ` L ] %.:.,.,.,.,.*.:.*.m.%X#X;X%X%X$X@X$X@X.X=X.XN.-.,.$.] ] ] ] ]                     ",
"                  OX#X}.#X}..X#X#X.X#X%X;X#X;X#X;X#X;X#X;X=X=X.X#X%X                                ",
"                  @X;X#X;X$X;X$X;X;X;X;X$X;X;X5X;X5X%X5X;X;X;X;X;X;X                                ",
"                    ;X@X;X;X;X'.^.E.^.^.^.^.^.E.^.~.!.!.W.E.^.E.^.^.G.                              ",
"                                X.X.X.X.o.X.X.X.( d 5 s ^ X.X.X.o. . .] ]                           ",
"                                ` ] ` L D L ] ` E 7 + - T ` ] ` ] ] ] ] ]                           ",
"                                / / / ] ] ] ] ` E 8 > : ! ` ] ] ] ] ] ] ] ]                         ",
"            ` ] ] ] ] ] ] ` ` N 8 8 v L ] ] ] ] / 8 > - ! ` ] ] ] ] ] ] ] ] ` ] ]                   ",
"            L L ] ] ] ] ] ] ` N > + e L ] ] L ` / 8 > - ! ` ] ] ] ] ] ] ] ] ] ] ]                   ",
"            ] ] ] ] ] ] ] ] ] N + + a / Y Y G L T 8 > - ~ ] ] ] ] ] ] ] ] ] ] ] `                   ",
"      ] ] L ] ] ] ] ] ] ] ] ` N > > : 0 0 q q 0 0 & & & ~ ] ] ] ] ] ] ] ] ] ] ] ] ] ] ]             ",
"      ] ] ] ] ] ] ] ] ] ] ] ` N > > + + + + > > + + + : ~ ` ] ] ] ] ] ] ] ] ] ] ] ] ] ]             ",
"       . .] ]  .] ] ] ] ] L ] C > 5 > > > > > > & > > : ! L ] ] ] ] ]  . . .]  . .]  . .            ",
"      U.Y.P.Y.Y.P.:.` ` N t a 2.x.x.i.> > > > + g d.x.h.1.a a ! ] ` m.Y.U.Y.U.Y.Y.P.P.Y.            ",
"      ;X;X;X;X;X;X<.D ` n + + e.;X9Xx.5 > > > + h ).;X.Xl + & c ` ` G.;X;X;X;X;X;X5X;X;X            ",
"      ;X;X$X$X;X;Xb.D ` M + . e.#X;Xx.> > > > > h (.;X|.k . & V ` ` H.;X@X#X$X;X;X$X$X$X            ",
"      ;X#X@X#X;X$XR.S.F.3.+ + j w.w.6.> > > > > 5 7.w.w.f + > t.F.S._.$X$X;X#X;X$X;X#X$X            ",
"      $X;X$X@X$X;X>X5X5Xr.& . + + & > > > > > > & . . . + & 5 k.;X;X;X#X@X#X;X#X;X$X;X#X            ",
"      ;X$X;X#X@X#X;X;X;Xi.. . > > > > > > > > > > > > > > > 5 k.8X;X;X%X;X%X#X;X#X;X$X$X            ",
"      $X;X$X;X#X;Xk.i.i.6.+ > > > > > > > > > > > > > > > > . w.i.i.!.;X#X;X;X#X;X#X;X$X            ",
"      ;X$X;X$X;X#Xw.. & > > > > > > > > > > > > > > > > > > > + . & s.;X;X;X%X;X#X;X;X$X            ",
"      ;X;X$X;X$X$Xw.. > > > > > > > > > > > . + > > > > > > > > > > s.5X;X%X;X#X;X#X$X;X            ",
"        %X;X$X;X$X6.+ > > > > > + + & & + + + & + > > > > > > > > > w.a.a.c.$X;X#X;X;X              ",
"                  . > + > > > > & + + + + &       > > > > > > + > > + + >                           ",
"                  > > + + # + + + + + + + +       > > > + + + + + + + + +                           ",
"                  v a a a a a a a a q & & +       > > & t a e a a a e a a m                         ",
"            ] ] ] L L L Y L L L L L Y                   L L L L L L L Y L L ] ] ]                   ",
"            L ] ] L L ] L ] L L ] ] ]                   ] ] L L L L ` L ] ] ] ] ]                   ",
"            ] ] ] ] ] ] ] ] L ] ] ] ]                   ] ] ] ] ] ] L ] ] ] ] ] ]                   ",
"      ` ] ] ] ] ] ] ] ] ] ] ] ] ] ] ]                   ] ] ] ] ] ] ] ] ] ] ] ] ] ] ] ]             ",
"      L ] ] ] ] ] ] ] ] ] ] ] ] ] ] ]                   ] ] ] ] ] ] ] ] ] ] ] ] ] ] ] L             ",
"      ] ] ] ] ] ] ] ] ] ] ] ] ] ] ] ]                   ] ] ] ] ] ] ] ] ] ] ] ] ] ] ] ]             "
};
