/* XPM */
static char *ed8d08a126b64094b36f39d28d0a7e65tLsdj3ZZ42oiLeXJ[] = {
/* columns rows colors chars-per-pixel */
"50 40 2 1 ",
"  c None",
". c red",
/* pixels */
"                                                  ",
"                                                  ",
"                                                  ",
"                                                  ",
"                                                  ",
"                                                  ",
"                                                  ",
"                                                  ",
"                                                  ",
"                     ........                     ",
"                   ............                   ",
"                  ...............                 ",
"                 .................                ",
"                ...................               ",
"               ....................               ",
"               .....................              ",
"              ......................              ",
"              ......................              ",
"              .......................             ",
"              .......................             ",
"              .......................             ",
"              .......................             ",
"              .......................             ",
"              ......................              ",
"               .....................              ",
"               .....................              ",
"                ...................               ",
"                ..................                ",
"                 ................                 ",
"                  ..............                  ",
"                    ...........                   ",
"                      ......                      ",
"                                                  ",
"                                                  ",
"                                                  ",
"                                                  ",
"                                                  ",
"                                                  ",
"                                                  ",
"                                                  "
};
