/* XPM */
static char *_8748a912b394378aaa0f89659acec26bYMOeUPRKj8siwPZ[] = {
/* columns rows colors chars-per-pixel */
"50 50 64 1 ",
"  c None",
". c #3A2A1D",
"X c #362A21",
"o c #382C21",
"O c #422E1E",
"+ c #47301F",
"@ c #4C331F",
"# c #50341F",
"$ c #412E21",
"% c #433123",
"& c #4D3522",
"* c #46372D",
"= c #4F3928",
"- c #533721",
"; c #553924",
": c #5C3C23",
"> c #543D2A",
", c #4E3E32",
"< c #623E23",
"1 c #5E4229",
"2 c #654125",
"3 c #6C4425",
"4 c #6F4827",
"5 c #654429",
"6 c #6B4629",
"7 c #66482A",
"8 c #6E482A",
"9 c #714726",
"0 c #744926",
"q c #7A4C27",
"w c #744B2A",
"e c #7D4E29",
"r c #76512E",
"t c #7C512D",
"y c #735330",
"u c #7D5430",
"i c #7D5830",
"p c #804F28",
"a c #83522B",
"s c #89572D",
"d c #8C592E",
"f c #835630",
"g c #855A32",
"h c #8C5B32",
"j c #925D32",
"k c #8B6136",
"l c #956135",
"z c #9B6436",
"x c #9C6936",
"c c #926638",
"v c #9D6638",
"b c #966939",
"n c #9D6A39",
"m c #A06738",
"M c #A36B3A",
"N c #A86F3C",
"B c #A5713C",
"V c #AB743E",
"C c #AD783F",
"Z c #AD7740",
"A c #AE7940",
"S c #B27D42",
"D c #B58144",
"F c #B88345",
/* pixels */
"5 ogktggu>yccjhu ybbcchw%%>ig<&<rXX%1ygckkr5rr771 ",
"bn1lBsdnbgBMMmjv5hSbjmMM78MSShajj&1gnbVVncxng8knnw",
"glwgCnBMgMzzvhasuNxapazCvwjAZMlwwhNzfdvmMzssls0ee:",
"<32zVVBnahppapqwzhpeesNSZu9zMvf9jMNmjvMMVSBldzh236",
":;3ajzzdw3pqw936zjjjsdAFCh3tap3pjmmmMMzjjMVMmzt#2q",
"hl3epappq:9whhgafMMMmMNVNM:;2;:ajzjjjdasaajlde26kr",
"nBe6epppq:hMASNzwjMMzjjash:uMj<<edzdeajmdepp0:elBC",
"bMje0ppq:5MMSDNMawdsppq32;oaDnq3::qapdMjpe092:epsB",
"rvmZt3:w9rMMCCMmd2<3w2:uw:5aNVzzlq2<qpje3:ixAb3pep",
"<jMANf1nhavNmddse32twwvZtffjzMMvje3tq22tw1BjMM2:q1",
"3pdzzztBSfqldeeq<tVCBVNlubwvMMja23zSCgaznwnzzs256+",
"3eepastjNs:3epp3:dlMmzhtBZ6ajza::tznlqhzz6qja9qmnt",
"-weeep<0ap:#<23#@qtssq<jSAf9ap<wct0qw29aaq-393esjd",
"8e3ppq@2qq3aaaat&29qq:0dMMj93<<fbt2dMBwq0wt6560jns",
"w9@33<9#:3jVVVVc4nl06<9eaapp<weq9wnDDCj5evSSAMawa3",
"&:wqtjl3qnSVNMa6sABzvj6:qeqq:<693qMMsapwljlMVSSj2 ",
"OtNVMMl3aMmzd86q25186433332wbMwww8jaepp9pqqpajjle ",
"6BDVjdzwqae3<evjw;2bBVlssjhuZMvmg5zdeeq<33w<<<338<",
"nSFNpqdf;2=:vSZjwjwBDDBNVVN8ajMzerZMhsq<pvVg3q9enf",
"tBVjppaz29w5mSM8ezwjVSCSDDVa6aa9:zSZMmafZSSjtllASg",
".adaepameqjqwh8:altwzmmMMZNu-33fwjMmzs<hASMuvZSAv5",
"&:peppdz8wMn9&u3pjl3paapasjt%uMmeppa9--fjd63jmMje ",
"cw3pppp<2hSZfgSa0sj9<epepepq5ZSmw0p<$6wqew95esaqw&",
"lMa3q0<9cASlgSSg;qpe::qpppp0umnj9<;uwcf3fvZj<qwwgf",
"whd2+<qsjMzfZZMg&;366=&<32<;3sape2wMtzefZSSl>7gmNz",
"&w0<<30epp9jMjp9<90fZz5eq0032qpp6wASee9vNZMfhSDZv6",
" #3esq930p<wdq93eavZZZhfzljjcw30<kSAg33sdsquSSMd63",
"-wjNMjsq96<<<;<jaamSSZmgASMzvl5jh0MSB63eee3hMzq3jV",
"smSDVMMmahZzj83mdpzVSVmdMVvpaddMaevSSZu0q9<pa33zVS",
"9nDSMjzjeZSMMh6jspjMMMM6ejspp9ha3ehzMZMj6gfw;;pjvm",
" 2zNjpq#qdjpjZa3pppdhjz::qew;3sq;3ppasjfhZMzu-0qpj",
";3qaq9@;<pppdhj<:30093309<<&;<9:-29eeee9jsapqwffw9",
"1saqgnwqt3009<:29f<<69qppp9;jfqfwg6<33<:q00fMSSMh;",
"@elVDFnwlntw3<qpjZwqaasdjs9eNZZMfzjptsp33ejzzzhse:",
"o2azVVhwBDVMj9alMSg3dMZSSMfqjZMMdANmMZM839qqq0995 ",
",&0ada:qzMzdl9sNZNM8sVSSZNhqppspbSNNSSz3jf6<:<9sht",
"*:3qq36wpppq3:jMMvjjue8fjj6<eq99ZZzzVVh3dvMh8ew33=",
"&ans3kSa0000:;szjapdu6s0<86<<<<qzjahvs>-3phwvSZb5>",
"2anBgbSc-8zvzw9apppq0jNh<lZvhjh<ppppw<7w93<5zZZMg&",
" 3pznfmstvNAZMaqppq8cSMf8wjMMMZuwpq9fNSSNzleedjsw ",
"ta0dmfjsgMZSSAm<2:&aMMfgsqwszVDV8:&2lNVSVMMj6q0<3 ",
"ep9jjqmmrwjMAZz<38;epaqheea9sNSCr&23qdlMmvmm830ale",
"<2<p53pa3<wsdjwfzMc3qeqhapstqjzd2fMh<qaaspss<dzMVt",
".;6fggf6wj3<pp<jvMv8ew2dzhsq<32<3hVNa#qeepq<eNVSVw",
"<ezZvsjfwphh9;>jszhvNzfwsap903qdwpzMffw39q2tMSFSj3",
"eazNmMMvw<ZSMf8jszfnzjj9qq3hjsBB3psp3jMcw>:zMASn2q",
"9asjNSSZ8<jMZmghddwaaeaa3#:jzNSx3pe<3pasjf;qjjzh<3",
":0ppdjjf:0pdds<6se;3ppeq303aadls3p0:epppps9qpppp2O",
"  2aep3<qw;0p9 :99O 2pq3hs3peepe33: 3qeqq9#<qppp0@",
"  +9q< 2s8 :3@   O   :;-32#<<203;    @#::   ;2333#"
};
