/* XPM */
static char *_96815e0cd8e46c6f95771858e4d570aCpewIKMpOgUJBaDB[] = {
/* columns rows colors chars-per-pixel */
"50 50 101 2 ",
"   c #553D3B",
".  c #53423C",
"X  c #58443E",
"o  c #5A4742",
"O  c #574A43",
"+  c #5C4C45",
"@  c #5D4E49",
"#  c #5C5047",
"$  c #5E524A",
"%  c #614C47",
"&  c #614E49",
"*  c #63534C",
"=  c #68544E",
"-  c #63584F",
";  c #655651",
":  c #695751",
">  c #665A53",
",  c #6B5C55",
"<  c #6D5E59",
"1  c #705E57",
"2  c #715F59",
"3  c #6D6157",
"4  c #6E625B",
"5  c #716157",
"6  c #73645D",
"7  c #78665E",
"8  c #75695E",
"9  c #78695E",
"0  c #736760",
"q  c #796760",
"w  c #756A63",
"e  c #7A6C64",
"r  c #7B6F68",
"t  c #7D7166",
"y  c #7D726A",
"u  c #816F68",
"i  c #82756C",
"p  c #88776F",
"a  c #85796E",
"s  c #887A6F",
"d  c #817770",
"f  c #857B73",
"g  c #8A7D74",
"h  c #867F78",
"j  c #887F78",
"k  c #898077",
"l  c #8B8077",
"z  c #8B8177",
"x  c #8C8076",
"c  c #8D8176",
"v  c #878079",
"b  c #8B8279",
"n  c #88817A",
"m  c #8E8279",
"M  c #8C847B",
"N  c #8B837C",
"B  c #8B847C",
"V  c #8C857D",
"C  c #8D867D",
"Z  c #8F887F",
"A  c #908177",
"S  c #90847B",
"D  c #94877C",
"F  c #93897F",
"G  c #96887C",
"H  c #948B7E",
"J  c #988B7F",
"K  c #918A81",
"L  c #928A80",
"P  c #938A80",
"I  c #948C82",
"U  c #958C82",
"Y  c #958D83",
"T  c #968D82",
"R  c #978D83",
"E  c #978E84",
"W  c #998C80",
"Q  c #9A8E81",
"!  c #988F83",
"~  c #998E84",
"^  c #988F84",
"/  c #979086",
"(  c #999082",
")  c #9A9083",
"_  c #989086",
"`  c #999186",
"'  c #9A9187",
"]  c #999287",
"[  c #9E9487",
"{  c #9A9288",
"}  c #9B9388",
"|  c #9A9389",
" . c #9B9389",
".. c #9B9489",
"X. c #9C9488",
"o. c #9E968B",
"O. c #9F9889",
"+. c #A0968B",
"@. c #A2998D",
"#. c #A59C8F",
"$. c #A79F91",
/* pixels */
"( ! i . w w w w @ e ' +.#.a > e e w 6 @ x ! F D , g H H D , 7 J ( t t H F J H e 6 H ( H 5 g H J F J ",
"....b w V b h L 6 F +.' ( i y V b L d w ..{ [ I i ' ' ' [ a H +.} l g [ ' [ / i G [  . .i E X.{ X.X.",
"L / b y V h h h 8 F I I ' i g V V V y y E E { L q ( ' ' ' t x ( / l l ..} / ' y V I [ ^ y ! ' ' { / ",
"* 6 - * w i i r 3 + $ ; 9 # < 4 i y 0 y + , y 6 . , e i w - @ $ w > , 6 t t e 4 * * 6 w * 4 6 r i q ",
"b y e e f [ ^ +.a e f f y w w q { E X.H 6 f f r e 3 6 l m B e e g a t = i b v H w e f f y w : m b b ",
"{ { { D d X.{ [ a S ../ ' { E i { E { l f ..F F ..l f ..' ' y I ' ' / y L [ ..' y I [  .{ F i { { { ",
"w d g d 0 d f f < a f u f B d 1 f f g y t S m f y w q m f a 6 a i f l = w g m g 6 g a p f i = d x l ",
"D e D ^ p O < 0 O i ! g u ( < O 4 6 @ m ( ' ! ! g > i S x 8 F ' F e g F g q x S y g Q g e D D e i m ",
"[ X. . .D 0 V V r r E ..[ ' r y V b < m { { { [ ! q V m Z i ' { { @.' ' m a V V y i [ } [ ( ' i b V ",
"E E E { g < N N f w { E L V w y K V y d { { ' { m y V f f 6 E / ' ' ' ' h y V V i y / ' / ' ' y f b ",
"g g m u o @ y e w q g y 6 q = * > 6 > * f g 9 e 6 6 7 q e & q l g g m u , 5 i q 4 3 g g g e e 7 r i ",
"@.[ +.V 0 I L D a X.@.' m @.+.q ; y e * ! $.I m ' ' i b G m f X.@.X.X.f q I I x g @.} ' [ e x [ ^ [ ",
"^ { { m r N h h i { ^ E { ' ' i y L K 4 f ' [ / ' I t m B h 6 L ' / { g y N h a g ' E ' ^ y E ' { [ ",
"E ' E r e f f w , V ! H I L S , w v h r t H H I I m 8 f h f 4 m E { L w r f f 0 6 H V L L < f I L L ",
"F $.D o > 0 6 >   6 m x l q 1 9 i g 0 @ e G a 5 f g i f a : 6 g I $.f o < 0 6 ;   q y w < o @ * e w ",
"X.{ D 0 N N b N 6 D +. .X.a S +.X...V f +.+.! i +.' X.o.m i [ +.o.{ b 0 K v B m 6 I ..V j V f 7 L E ",
"E ' V y N L N N w I / / ' i H { ' [ m d ..' I y ..} } ..l g ' } { { v a V V V b w ' ' F L L V u ^ _ ",
"3 y w < y y d w 8 6 4 f f * , f g f 4 * > y y , a f g g w , < 6 4 y 4 4 y y y 8 8 5 e m g q < , f d ",
"w w > > > x D D  .3 4 r w * < + y y y y $ e e 4 * : i y f t * w e w > , > V D H ' > f X.X.X.q g L E ",
"' / E E i I { { ' t { L L ^ I e { ' ..b f } / ' f f ..../ v f ..E E ^ P i /  . .I i ' ' ' { y f j j ",
"f ' E I r f D L x 7 H m m f g 7 V L H y y g F I i 5 H ( V y a m f H P D e g D F f 7 H F ' g 4 f f d ",
"a #.F , < 4 w 0 * , H l 6 6 s s x g 6 1 g s l g * 6 g g g * 5 g a x a , p g g i % 9 H m ! O o w 0 6 ",
"O...F 7 N N b V 5 H @. .a F } ..X.' r I [ [ ..' i [ ..X.O.i S +.X.{ m f @.[ X.' i [ O...! 6 i V h j ",
"/ ' m y V V N V 6 I  .' f F } ' X.^ i ' ' ' ' I t ' / ' ..i m [ ' { g f X.' { I t ' ' / ' y b v h L ",
"3 y w > y y f w 8 5 7 y 3 t i f f i ; < 4 r f r O q f f y * * , y h < @ i f f 0 $ ; , 4 y ; w i d y ",
"w e 4 > > g F H +.4 4 y w > $ y i i h > 4 r y 0 > ; , i a f 4 3 r w > < @ e d i v ; 0 e 4 , 6 D L U ",
"/ / } E i D ' ' ^ y +.^ ' I y ' { ' E y E ] L K ' f f ' ' / y I ^ L I ^ y L ' { K y ..{ { E d ^ { { ",
"y Z H K e f V H m 0 g f V m > g F I g w V H D g g i y F V b 8 V H V g g w g L m f w f g D L q g D L ",
"f 6 g i   * 4 $ e m D f 1 f a q q g g 8 S D D b u * 0 g f 6 a H I D g 7 = a l e e l l e q P g ; @ < ",
"+.{ [ m 4 v v w y X.X.@.' [ [ f l V V r H X.{ @.^ r L L I a ' +.....X.g i L H N l O...O. .o.+.q y b ",
"^ P V m w K V f w [ ' / ' [ { d f V D r a [ ' ' I r v v f 7 ' ' { / { g y V b y f [ ' '  ._ { w f L ",
"j d r @ @ y d y & r m I @.g i < 6 r r * < m m P : * r y 6 X 7 l H @.g & 4 r e = O i l l g d q + 0 y ",
"! P S = D ! I D : p X.+.#.a , y t y 0 * m X.E D O 0 y r y ; 6 ' +.@.m = y y y w & f ' I ( 8 i H L W ",
"[ { S f ../ ! [ i { X.{ / i y V V V f w [ ..{ F w b v h V w g [ ' ' g y V V b v 0 E ..' ( i ! ' _ { ",
"! { g q [ ' ^ L 6 g H V ' y h V B l y t L V I F r V v h h w f D V I f a V V v f w D F / ' 8 S ' E E ",
"4 e * . : 6 r 4 > O O * 4 O ; 4 i i w a o + , > O 4 i i i e O @ * 4 $ $ , t i e a % $ w 6 . % < r q ",
"m v y f < d D L H w g V f y y y [ ' @.H e V g f i i  .! @.S t V B v y y q  .' } ' w j m f y y 4 V L ",
"' V L [ d V { ' ^ r ^ ! ' X.I y ' ' ' g f { / [ I y '  .X.g g ^ ' ' [ [ i L ' { H i { ! V ' F i { ^ ",
"l g a q , u g a r 6 u 7 i g y , y y a e r q e a f 5 e y a 4 w f 7 e g i ; w y y t w g g f 9 6 < f g ",
"X.[ ^ g 2 S D x y ' +.D f ' 4 + w w + P X.' f S +.! & > e ; 4 [ ( f ( i O 0 y @ g [ +.' +.F 7 i D L ",
"/ ' ' S r V N j f ' ' ' / / y i V V 4 b { E ....' I w N V f 6 I ' { ( f r V V w i ' ' ' ' ' t v h L ",
"' ( ' a r j h y 7 I ' I V b 4 e m m y y ' / E ' / V > h b m 8 S E D V e 4 B b f e I ' I ' H e f h h ",
"l t 6 2 q d i 5   i g a 6 5 , 6 a a < * f m x D : % o < 4 , % i f q < , 6 i a q & a g g g = $ i i u ",
"X.m i +.X.+.X.a a [ @.+.i H @.X.X.' e D X.@.X.H , d h f h w a @.@.g f @.[ } } i f [ X.X.X.t D +.[ [ ",
"' H i [ E { ..f L ..{ ] a D { ^ { E y { { / { L r N h b V w m X.' g g ../ { ' i I ' ../ ' i I ' ^ [ ",
"V y e H D V D 6 0 r f b 8 f D V D f < r y y f f < f y f a < 8 y b y y F D m m 4 q r a V m > e H S V ",
"w 4 * + < r r r < @ 4 0 > $ + 0 r e r # ; > 3 ; $ 5 V m D f + < 6 4 * O 4 y r y > $ 4 w 4 O * + e r ",
"E I I t m / E ..y b { I { D e ^ / E E y I ..E L L a { { X.M f { E I I e H ' I ..y V / F V F B e ^ ^ ",
"V { ' r a ' ' I t A H J ( I 6 H { ^ m e / D F { P e ! ^ ^ f f P I / I w g ' ' F e F ! I D D S u I ^ ",
"7 ; 7 6 < , i a < u i 6 = e 1 1 5 a i 1 s 7 * 6 a 7 & , < + < p 7 * y 5 3 < i i 5 i g g f 6 & & i a "
};
