/* XPM */
static char *_bd1511c236f46c4c6f86613379ef9a7OAS9jX58XBKiadsb[] = {
/* columns rows colors chars-per-pixel */
"50 50 158 2 ",
"   c None",
".  c #AB181D",
"X  c #AE181E",
"o  c #AF181E",
"O  c #B0181E",
"+  c #B4191F",
"@  c #C41B21",
"#  c #C51B21",
"$  c #C61B21",
"%  c #CF1A20",
"&  c #CB1C23",
"*  c #CD1C22",
"=  c #CD1C23",
"-  c #CF1D23",
";  c #D01D23",
":  c #D21D23",
">  c #D31D24",
",  c #D41D24",
"<  c #D51D24",
"1  c #D51E24",
"2  c #D41F24",
"3  c #D61E24",
"4  c #DE1B22",
"5  c #DE1C22",
"6  c #DE1C23",
"7  c #DF1C23",
"8  c #DA1E25",
"9  c #DB1E25",
"0  c #DC1D25",
"q  c #DE1D24",
"w  c #DC1E25",
"e  c #DC1F25",
"r  c #DD1F25",
"t  c #DE1E25",
"y  c #DF1E25",
"u  c #DE1F25",
"i  c #DD1E26",
"p  c #DC1F26",
"a  c #DD1F26",
"s  c #DE1E26",
"d  c #DE1F26",
"f  c #DF1F26",
"g  c #DC2026",
"h  c #DE2026",
"j  c #DE2126",
"k  c #DE2027",
"l  c #DE2127",
"z  c #DC2327",
"x  c #DE2226",
"c  c #DE2227",
"v  c #DE2327",
"b  c #DD2427",
"n  c #DE2427",
"m  c #D4272D",
"M  c #DE2128",
"N  c #DE232A",
"B  c #DE252C",
"V  c #DE282F",
"C  c #CE2A30",
"Z  c #DE2930",
"A  c #DC2D33",
"S  c #DE2D33",
"D  c #DE2D34",
"F  c #DF2D34",
"G  c #AD7338",
"H  c #BC7C3D",
"J  c #BE7E3E",
"K  c #DE5636",
"L  c #DE5C38",
"P  c #DE6039",
"I  c #DE613A",
"U  c #DF6B3C",
"Y  c #DE6C3D",
"T  c #DE6E3D",
"R  c #DE6F3E",
"E  c #DA723E",
"W  c #DE4449",
"Q  c #DE464B",
"!  c #D45257",
"~  c #DE5156",
"^  c #DF5A5E",
"/  c #DE5A5F",
"(  c #DE7540",
")  c #DE7640",
"_  c #DE7740",
"`  c #DD7840",
"'  c #DF7941",
"]  c #DE7A41",
"[  c #DF7A41",
"{  c #DE5D62",
"}  c #DE6E72",
"|  c #C38240",
" . c #C48240",
".. c #C58340",
"X. c #C68341",
"o. c #C68441",
"O. c #C78441",
"+. c #CB8742",
"@. c #CD8843",
"#. c #CE8943",
"$. c #CF8A44",
"%. c #D58142",
"&. c #D68543",
"*. c #D18944",
"=. c #D08A44",
"-. c #D18A44",
";. c #D08B44",
":. c #D18B44",
">. c #D28B44",
",. c #D28B45",
"<. c #D38C45",
"1. c #D38D45",
"2. c #D48D45",
"3. c #D68E46",
"4. c #D78F46",
"5. c #D88F47",
"6. c #D99047",
"7. c #DB9147",
"8. c #DB9148",
"9. c #DC9248",
"0. c #DD9248",
"q. c #DD9348",
"w. c #DE9348",
"e. c #DE9349",
"r. c #DE9449",
"t. c #DF9449",
"y. c #DE9549",
"u. c #DF9549",
"i. c #DF9649",
"p. c #DF974A",
"a. c #DF984A",
"s. c #E09449",
"d. c #E09549",
"f. c #DE7C80",
"g. c #DE888C",
"h. c #DE9799",
"j. c #DE979A",
"k. c #DE989B",
"l. c #DE999C",
"z. c #DC9EA0",
"x. c #DEA1A3",
"c. c #DEA2A4",
"v. c #DFB8B9",
"b. c #DFB9BA",
"n. c #DEBBBC",
"m. c #DFBBBC",
"M. c #DFBEBF",
"N. c #DFBFC1",
"B. c #DFC0C1",
"V. c #DFDEDE",
"C. c #DFDFDF",
"Z. c #DFE0E0",
"A. c #DFE2E2",
"S. c #DFE3E3",
"D. c #DFE5E4",
"F. c #DFE5E5",
"G. c #DFE6E5",
"H. c #DFE6E6",
/* pixels */
"                                                                                                    ",
"                                                                                                    ",
"                                                                                                    ",
"                                                                                                    ",
"                                                                                                    ",
"                                                                                                    ",
"                                                                          :.r.r.r.r.r.e.            ",
"                                                                          $.s.r.r.s.r.e.            ",
"                                                                          :.r.s.r.s.r.e.            ",
"                                                            +.6.3.6.8.3.5.8.s.r.s.r.s.e.            ",
"                                                            :.s.r.s.s.r.r.s.r.s.r.s.s.e.            ",
"                                                            <.s.s.s.r.s.s.r.s.s.s.s.s.r.            ",
"                                                            J  .| +.e.r.r.#.|  . . . .|             ",
"                                              :.r.e.e.r.e.e.        7.s.e.                          ",
"                                              :.s.r.s.s.r.e.        7.s.7.                          ",
"                                              #.e.7.7.7.6.6.        r.s.s.                          ",
"                                        3.3.3.G                     e.r.7.                          ",
"                                        r.s.7.                      e.r.s.                          ",
"                                        r.r.e.                      7.e.s.                          ",
"                                      J O.O. .                       .+.O.                          ",
"                  2 w M f f p z ` r.e.#.                    :.r.r.-.                                ",
"                  2 f w f f f M [ r.s.:.                    -.r.r.<.                                ",
"                  2 f w w f f n [ r.s.:.                    -.s.s.<.                                ",
"            2 2 2 w f M f f w n [ s.r.E 2 2 2               -.r.r.<.                                ",
"            f f M f f f w M f n [ d.s.R f w l               :.e.s.<.                                ",
"            w f w f w f f f w n [ d.d.R f w 9               :.s.r.<.                                ",
"            l w w f w f w w M M I _ E K l l w               %.r.s.&.                                ",
"            w f f f M f f f f f n f l f f w w         w w w E r.r._ n w 9                           ",
"            M f M f f w w f l f l f l w w w w         0 f l T s.s._ M w w                           ",
"            w w w M M M M f w f w f f w l w 9         0 f f T s.r._ l l w                           ",
"            M f B g.c.c.} f f w f w f >       $ 2 2 3 l l f T r.s._ f f M 2 > 2 &                   ",
"            w f S N.H.H.l.f f w l w l -       > f w f f w f E s.s._ n w f f f f 2                   ",
"            f w F N.H.H.h.f f w f w M ;       ; w w f f f f E d.d.[ n l f f l f 3                   ",
"            - * C z.b.b.f.w f f f w f >       3 f f w l 0 l K [ [ I l l 0 l 0 f 3                   ",
"                  m V B B f w M f l w -       ; w l f f f l l l n n h 0 f f f 0 ;                   ",
"                  2 f f f w f f w w l >       ; f f f w f w l f y 0 l f 0 l f l 2                   ",
"                  2 M w w w M w w l w -       3 f w w f f w w f u f l 0 f f f f 2                   ",
"                    .               .         ; f f W h.l.k.W 4 0 l f f 0 l 0 l 2                   ",
"                                              ; w 7 ^ V.S.S.{ 7 f 0 f 0 f 0 f f <                   ",
"                                              > f f ^ V.S.V.{ 7 f l f l f l f f 2                   ",
"                                              $ ; * ! n.N.m.~ 7 f p f f w 2 ; ; $                   ",
"                                                      F F F M f f f f f w +                         ",
"                                                      w w w w w p f f f w                           ",
"                                                      w f w l w p p f f w                           ",
"                                                      o O O O O o O O O O                           ",
"                                                                                                    ",
"                                                                                                    ",
"                                                                                                    ",
"                                                                                                    ",
"                                                                                                    "
};
