/* XPM */
static char *_fd9fba0d5fc474cc52a3bf84b3f7e5b2VlMGKZQc4X8878n[] = {
/* columns rows colors chars-per-pixel */
"50 50 96 2 ",
"   c #3800AB",
".  c #3900AF",
"X  c #3A00B3",
"o  c #3B00B5",
"O  c #3C00B8",
"+  c #3D00BC",
"@  c #3F00C3",
"#  c #4000C5",
"$  c #4100C7",
"%  c #4200CA",
"&  c #4200CD",
"*  c #4300D1",
"=  c #4400D3",
"-  c #4500D4",
";  c #4600DB",
":  c #4700DD",
">  c #4800DF",
",  c #4800E0",
"<  c #4800E1",
"1  c #4A00E4",
"2  c #4A00E6",
"3  c #4B00EB",
"4  c #4C00EB",
"5  c #4B00EC",
"6  c #4D00EF",
"7  c #4D00F2",
"8  c #4E00F2",
"9  c #4E00F3",
"0  c #4F00F5",
"q  c #4F00F6",
"w  c #4F00F8",
"e  c #4F00F9",
"r  c #5000F9",
"t  c #5100FD",
"y  c #5600FD",
"u  c #5500FE",
"i  c #5C00FB",
"p  c #5D00FB",
"a  c #5800FC",
"s  c #5B00FC",
"d  c #6700F7",
"f  c #6800F7",
"g  c #6E00F5",
"h  c #6C00F6",
"j  c #6D00F6",
"k  c #6300F9",
"l  c #6400F8",
"z  c #6500F8",
"x  c #6800F8",
"c  c #7400F3",
"v  c #7000F4",
"b  c #7300F4",
"n  c #7500F4",
"m  c #7900F2",
"M  c #7800F3",
"N  c #7C00F0",
"B  c #7D00F0",
"V  c #7E00F0",
"C  c #B300DF",
"Z  c #B400DF",
"A  c #B800DD",
"S  c #BA00DC",
"D  c #B800DE",
"F  c #BC00DC",
"G  c #BD00DC",
"H  c #8200EF",
"J  c #8700ED",
"K  c #8600EE",
"L  c #8700EE",
"P  c #8E00EB",
"I  c #8800ED",
"U  c #8B00EC",
"Y  c #8D00EC",
"T  c #9900E7",
"R  c #9B00E7",
"E  c #9E00E5",
"W  c #9C00E6",
"Q  c #9100EA",
"!  c #9000EB",
"~  c #9500E9",
"^  c #9600E8",
"/  c #9800E8",
"(  c #8000F0",
")  c #A700E3",
"_  c #A300E4",
"`  c #A200E5",
"'  c #A500E4",
"]  c #AB00E1",
"[  c #AB00E2",
"{  c #AF00E0",
"}  c #AE00E1",
"|  c #B200E0",
" . c #C000DB",
".. c #C100DB",
"X. c #C500D9",
"o. c #C900D8",
/* pixels */
"} } B O k f z z - f Z F X.H 2 f f f s - ~ } ' ` q P ] ` W q k ] C v f _ ] ` ] b u ` Z _ s I ' ] ` ` ",
"Z Z ~ z / Q Q / p ` D Z C m B T / T K z C | | ' m C | | D H _ D D Q Q Z Z Z Z m ` Z D Z m ] Z | D Z ",
"` } ~ n / Y ~ Y p ` } _ } m P ~ T ~ c n } } Z _ f C | | } b P } } P P C C C C c ~ ] } } c } Z Z | | ",
", p 3 > z m m b t & ; 3 z - w s m n k c & r c u . q d c z 3 = ; d 9 q s f c f q > : p d < s p h c f ",
"K B h f I D } D K h Y K m z z d Z } D ] s K H b h t s Q Q T d f K H v 2 m ^ P ` z h K K B z 9 Q Q Q ",
"Z C Z T ( | | D B T C } | | ] n } | Z ~ K | ` ` | Y K Z | | b ] C C } m _ Z C } m ' Z } | T m Z Z | ",
"z B Q H k H K K u B ( b K ~ K t H K K h h T ~ H b z z ~ Y B p B V K P 9 f U ~ U i I B H I B 2 B Q Q ",
"W f W } H + w k % c } Q c ] w @ s s = T } C } ] I 9 B T ~ f ` } ` h K W K d ~ ~ n P } Q x W W h B ~ ",
"C D Z Z T d ~ T h h | D C } b m T ~ t ~ C } C C } h T T T m C C Z D Z } ~ V T T v V Z Z Z } C m Q W ",
"} } } | Y u / ~ I z } ] ` T k b T T v B C | | C W f Q U K p ] } } } C C P m ^ T V f Z | | | } b I ~ ",
"P P ~ c O : m h z p Y b p f 2 : q p w ; K Q f f p u p h f > k Q P P Q v 9 u V f s y P K P f b p h B ",
"S D D ~ z ` ` W ( D  .| T F F f 3 c b : }  ._ Q C C m T ` ~ m D S D F I h _ _ T P F D C Z h ~ C | | ",
"C } | / b Q Q K B | ] } C } Z c H T ^ k P { Z C | _ v ~ ^ U p _ } } Z I m Q Q V K Z { C } n } } } Z ",
"] C ] f f I K d q W ] _ ` ` ~ q k U P h f } ` ] ` T z I P K t Q } Z ` d v K K p s T T ` ` u H ] ' ` ",
"` o.W @ 9 p p q   s T ~ ~ f r z c U d ; h W H s K P m I H 6 s Q ] o.P # t p p 3 . d c d u o - , x d ",
"Z Z _ z ~ ~ Q ~ p W F Z C H W G Z D T H D D C m Z Z D D T m Z F D Z ^ f ~ Q ~ P s ] C T Q ~ K d _ } ",
"} | T v / / / ~ p } C } } B W C C C ^ V Z | } n | | | D Y K | Z | } Y m / / ~ P z } Z ` ` ' T c } | ",
"t n d w n m B f z u u K I > 9 H U K u > 8 v b w B K I I z w t z t V i u b B m z x u n Q I z q q K H ",
"x z 9 q 9 ~ ` W C u u b z 6 q - v m V m , f h u , 5 m B H b 2 k d l 6 q q T W _ Z 9 K D D Z x Y ` ] ",
"} } ] } m ` | | C c } ] T } _ h } } C ~ K Z } | Y K | | | P K | } } } _ c } C Z ' m } } } | n I Q Y ",
"( | } } h H ` ` Q k W W ~ K Q f W ` T c c ~ ` ` n s W ] T n m T I W _ ] d P W ` K z _ ' } I u B B K ",
"I X.' q r p z k - t ` ~ p p K H Q P p t I I Q Q < p Q Q U > r P V ~ m r H P ~ m ; k ` T ] & @ z p s ",
"D C T z ~ ~ ~ ~ s W F D V ` D Z D | f } D D Z } v Z Z Z D B ` D C C ~ K D Z Z ] m C D Z } z B ~ I ~ ",
"} | / b ~ T ~ ~ p ] C C V ` Z Z Z } c C | | Z ' c Z | | D m W | } C P I Z Z | ] b C Z } } v Q Q Q ~ ",
"r n p q v c B z z s s V r v V H K c q q u h K v # f K K v 3 < q m I r - B ( K k , 3 q p m 2 f c m V ",
"f x r q q T ` ` D u p g z q - v V V K 6 p c v s 8 1 q m V P s w c h r t - x B B K 3 k f p q s ` T } ",
"| } } } m ` Z C } c Z } | } b C C C ] c } C ` ` Z I K C | } m ` } W _ } c ` } C ` c Z C } C m } C Z ",
"B / ` _ h K W W Q k P ~ T ~ 9 K _ W P k ` W ^ Q K m b ` T ~ k Q W T K P f Y W W H d K P W T d Q W ` ",
"H p P m X 2 s ; c Q T H u K V d f P K d ~ ` ` T n > h Q K s K ` ] T P s 3 H P n h ~ ~ f f W P 2 - u ",
"S Z Z ~ u U ^ s v C D G C Z Z K Q W T d W D Z D } h W T _ K Z Z Z Z D Q B ` ` T Q D S D Z D D f c Q ",
"} } W ~ d T ^ K d C } } } C C V I T W h K Z { Z ] h Q Q I d Z C Z } C P m Q Q c H Z C } | } | z K T ",
"P H v = = m V c ; b ~ ]  .Q m u s v h 4 t ^ ^ ` 4 2 v f p o p P _ F I ; s f f 2 # m ^ P Q B z & z m ",
"_ _ ^ 9 ` ] ' T 9 K D G ..( r n c b z , / D ] T % s c h c 6 s C Z  .T 2 v c n f ; K | _ | d m _ ' ' ",
"C C T H Z | | Z m C | | | M B / ~ T ( f Z Z C _ d ~ Q Q W f J D Z C I c ~ T ~ ~ p } Z | } c } Z } Z ",
"_ C Q d C } } ` p P W R Z c I ~ ~ ~ h b ` T _ ` h T P Q Q p P T T } I B T ~ Q H z T ` } } d ~ Z | } ",
"s f > X 3 z h u q @ # , u # 6 u V m h B @ = q 8 % u m V V f # - > u - > r c m h K - : z p X - r h x ",
"T I m K t V T ` ` z P Q I m c v D | D ` f ~ Q H V m Z Z D T b T ~ P m c f | C Z Z f Q Q H m b u / W ",
"} ` _ C V ^ Z | ] v } { Z C | v } | D Q K C | Z ] c C C Z P K | } C Z | m ` C Z ` m Z ` ` } T m } | ",
"Q Q m k q v P B h p m k c Q v 4 b n m f h f f ( U y v v V q d K k v I H 6 z m m c z ~ Q K d z t Y K ",
"Z Z C I u T W T m Z C ] K Z u - z z - _ D D I T Z ] - 9 f 6 s C } H Z c # s x - P C Z C C } u m W ' ",
"} | C T n / Q Y B Z } | } } b B T ~ s Q C } Z Z } } d ^ T V s } | C } K n / / z c Z } } C C b Y ~ ~ ",
"} } } H f Q K n p ] } ] T Q s x ~ ~ v V } } ] Z } ^ q K ~ ~ k W } T Q c u ~ ~ H f ] | } } W x I K Q ",
"P h s u f H B i . m ~ K p u q l B H u 2 I ~ ~ W 3 - % t p q - m I z u 8 s m K z - ( Q I U 3 ; B ( m ",
"F W B D D D D K H Z  .D V W F Z D Z f W D  .Z ` q V Q B P k B  .G Y I D D Z Z m I D G Z Z c ' D Z | ",
"Z W H D } | | B W | | | V T Z { Z ] m | C | C _ f ^ P Q / z / | | Q I Z | | | n ] C | } { c ] C | | ",
"~ c h W ' / W p z b K Q l J W W W I t h v n H K u K V K m s z n ~ h m W W W ~ i z b ( T T 6 c W / / ",
"z u 3 % r h h h r - u k q : % d h x f - 6 q u 4 - u ~ Q / I - w i t 2 # u f f f 5 : u k u # - ; x j ",
"] _ ] b ~ | } | B Q } ] ] T d } } | } n ' | } _ T H D C D / B | ] ] } h ` | | | m / C ` T _ Q h } } ",
"T Z { h V C C ] n ~ ` ] } ` p W | | / h } / } } ` f { } { H V } ` } } k P Z | ` b ` ] ` T W / n ] ] ",
"p 4 d p t q m B p h c p 1 h r u i B m t H z < s K s : q u = q H k 2 x u t r B B u c P P I p - - B B "
};
